<svg xmlns="http://www.w3.org/2000/svg" viewBox="0 0 692.43 692.43"><defs><style>.cls-1{fill:#212121;}.cls-2{fill:none;stroke-width:20px;}.cls-2,.cls-4,.cls-5{stroke:#bd000d;stroke-miterlimit:10;}.cls-3,.cls-4,.cls-5{fill:#bd000d;}.cls-4{stroke-width:5px;}.cls-5{font-size:188.26px;stroke-width:8px;font-family:InconsolataGoNerdFontComplete-Bold, InconsolataGo Nerd Font;font-weight:700;}</style></defs><g id="Darkbg"><rect class="cls-1" width="692.43" height="692.43" rx="177.73"/></g><g id="Capa_2" data-name="Capa 2"><rect class="cls-2" x="70.96" y="101.33" width="548.1" height="407.59" rx="50"/><path class="cls-2" d="M883,710.15v61.56h-58.4a10,10,0,0,0-10,10v21a10,10,0,0,0,10,10H1134a10,10,0,0,0,10-10V780.34a10,10,0,0,0-10-10h-59.49V710.15h-40.77v60.74H923.44V709.61Z" transform="translate(-633.1 -191.26)"/></g><g id="arrow_1" data-name="arrow 1"><path class="cls-3" d="M802.83,492.17l24-24a10.26,10.26,0,0,0,.08-14.42l-7.26-7.4a10.24,10.24,0,0,0-14.65,0l-37.46,38.39a10.24,10.24,0,0,0-.1,14.21l37.7,39.73a10.25,10.25,0,0,0,14.68.19l5.91-5.91a10.25,10.25,0,0,0,.48-14Z" transform="translate(-633.1 -191.26)"/><path class="cls-3" d="M1152.26,493.1,1128,468.85a10.26,10.26,0,0,1,0-14.5l7.6-7.59a10.25,10.25,0,0,1,14.49,0L1187.32,484a10.23,10.23,0,0,1,0,14.49L1147,538.86a10.25,10.25,0,0,1-14.49,0l-5.08-5.07a10.25,10.25,0,0,1-.26-14.22C1136.31,509.67,1151.77,493.1,1152.26,493.1Z" transform="translate(-633.1 -191.26)"/><path class="cls-4" d="M1104,393.5l16.19,7c3,1.83,2.42,3.84,1.62,8l-36,169.58c-1.11,5.75-4.49,9.87-9,8l-13.86-6.76c-2.78-2-4.16-6.14-3.35-10.08l34.68-169.88C1095.34,393.9,1099.36,391.92,1104,393.5Z" transform="translate(-633.1 -191.26)"/></g><g id="Capa_3" data-name="Capa 3"><text class="cls-5" transform="translate(217.05 361.36)">JG</text></g></svg>